<svg width="24" height="24" viewBox="0 0 24 24" fill="none" xmlns="http://www.w3.org/2000/svg">
<path d="M11.625 11.625V16.5" stroke="#0C27BE" stroke-width="2.25" stroke-linecap="round" stroke-linejoin="round"/>
<path d="M7.875 11.625V16.5" stroke="#0C27BE" stroke-width="2" stroke-linecap="round" stroke-linejoin="round"/>
<path d="M11.625 14.25C11.625 13.5538 11.9016 12.8861 12.3938 12.3938C12.8861 11.9016 13.5538 11.625 14.25 11.625C14.9462 11.625 15.6139 11.9016 16.1062 12.3938C16.5984 12.8861 16.875 13.5538 16.875 14.25V16.5" stroke="#0C27BE" stroke-width="2" stroke-linecap="round" stroke-linejoin="round"/>
<path d="M7.875 9C8.70343 9 9.375 8.32843 9.375 7.5C9.375 6.67157 8.70343 6 7.875 6C7.04657 6 6.375 6.67157 6.375 7.5C6.375 8.32843 7.04657 9 7.875 9Z" fill="#0C27BE"/>
<path d="M16.5 3H7.5C5.01472 3 3 5.01472 3 7.5V16.5C3 18.9853 5.01472 21 7.5 21H16.5C18.9853 21 21 18.9853 21 16.5V7.5C21 5.01472 18.9853 3 16.5 3Z" stroke="#0C27BE" stroke-width="2" stroke-linecap="round" stroke-linejoin="round"/>
</svg>
