<svg width="166" height="48" viewBox="0 0 166 48" fill="none" xmlns="http://www.w3.org/2000/svg">
<g clip-path="url(#clip0_3949_10352)">
<path d="M67.4182 16.5371H72.247L65.1407 33.5695H60.4168L53.2786 16.5371H58.2078L60.3849 22.0556L62.8312 28.7779L65.2456 22.0556L67.4182 16.5371Z" fill="#0C27BE"/>
<path d="M87.336 16.5371H91.2428V33.5695H87.336L87.0302 31.5001C85.6016 33.1343 83.6664 33.9491 81.2155 33.9491C78.8148 33.9491 76.8522 33.1204 75.3369 31.4677C73.8171 29.8103 73.0594 27.676 73.0594 25.0556C73.0594 22.4353 73.8171 20.2964 75.3369 18.6436C76.8568 16.9862 78.8148 16.1621 81.2155 16.1621C83.6847 16.1621 85.6244 16.9677 87.0302 18.5741L87.336 16.5371ZM82.1329 29.9538C83.493 29.9538 84.6021 29.4954 85.4647 28.5741C86.3273 27.6529 86.7563 26.4816 86.7563 25.0556C86.7563 23.6297 86.3273 22.4584 85.4647 21.5371C84.6021 20.6158 83.493 20.1575 82.1329 20.1575C80.7956 20.1575 79.6957 20.6158 78.8376 21.5371C77.975 22.4584 77.546 23.6297 77.546 25.0556C77.546 26.4816 77.975 27.6529 78.8376 28.5741C79.7002 29.4908 80.7956 29.9538 82.1329 29.9538Z" fill="#0C27BE"/>
<path d="M107.459 16.5371H111.982V33.5695H108.075L107.769 31.6019C106.386 33.1436 104.561 33.9121 102.297 33.9121C100.188 33.9121 98.5088 33.2038 97.2491 31.7917C95.9894 30.3797 95.3641 28.463 95.3641 26.051V16.5371H99.8872V25.7779C99.8872 27.0649 100.211 28.0788 100.855 28.8103C101.503 29.5464 102.365 29.9121 103.456 29.9121C104.657 29.9121 105.624 29.5001 106.364 28.6714C107.098 27.8427 107.468 26.7732 107.468 25.463V16.5371H107.459Z" fill="#0C27BE"/>
<path d="M125.337 16.1945C127.103 16.1945 128.531 16.713 129.618 17.7454L127.651 21.2963C126.788 20.6991 125.884 20.3982 124.93 20.3982C123.684 20.3982 122.694 20.8241 121.955 21.6759C121.22 22.5278 120.85 23.7222 120.85 25.2639V33.5741H116.327V16.5371H120.234L120.608 18.6759C121.836 17.0232 123.411 16.1945 125.337 16.1945Z" fill="#0C27BE"/>
<path d="M138.052 34.0186C135.172 34.0186 132.626 33.213 130.403 31.6065L132.274 28.3658C133.926 29.5371 135.921 30.1251 138.258 30.1251C140.161 30.1251 141.115 29.5973 141.115 28.5371C141.115 28.0325 140.864 27.6482 140.366 27.3797C139.869 27.1158 139.043 26.926 137.883 26.8102C135.706 26.6251 134.013 26.0695 132.804 25.1389C131.59 24.2084 130.987 22.9862 130.987 21.4676C130.987 19.8612 131.663 18.5602 133.009 17.5695C134.355 16.5834 136.154 16.088 138.395 16.088C141.001 16.088 143.242 16.7315 145.127 18.0186L143.292 21.1899C141.932 20.3149 140.366 19.8797 138.6 19.8797C136.469 19.8797 135.405 20.4075 135.405 21.4676C135.405 22.3658 136.377 22.9028 138.331 23.088C140.777 23.3426 142.598 23.9028 143.785 24.7778C144.976 25.6528 145.569 26.9028 145.569 28.5371C145.569 30.1945 144.894 31.5186 143.547 32.5186C142.192 33.5186 140.362 34.0186 138.052 34.0186Z" fill="#0C27BE"/>
<path d="M156.341 16.1945C159.376 16.1945 161.681 17.1296 163.26 19.0046C164.834 20.8796 165.428 23.4028 165.044 26.5741H152.091C152.251 27.6528 152.767 28.5185 153.639 29.1621C154.51 29.8056 155.615 30.1296 156.952 30.1296C158.901 30.1296 160.466 29.588 161.644 28.5093L164.159 31.1296C162.301 33.0602 159.841 34.0278 156.783 34.0278C153.949 34.0278 151.694 33.2222 150.019 31.6158C148.34 30.0093 147.504 27.8333 147.504 25.0972C147.504 22.4537 148.321 20.3102 149.951 18.6667C151.58 17.0185 153.707 16.1945 156.341 16.1945ZM156.473 19.9537C155.273 19.9537 154.291 20.2685 153.534 20.9028C152.776 21.5371 152.315 22.4167 152.155 23.5417H160.791C160.699 22.4398 160.27 21.5648 159.499 20.9213C158.728 20.2732 157.719 19.9537 156.473 19.9537Z" fill="#0C27BE"/>
<path fill-rule="evenodd" clip-rule="evenodd" d="M44.3467 14.7639L31.4303 1.65743L24.4746 8.69447L17.5417 1.63892L4.60247 14.7639C-0.404354 19.8426 -0.404354 24.9213 4.60247 30L16.9757 42.551C21.9826 47.6297 26.9894 47.6297 31.9916 42.551L44.3467 30C49.3535 24.9213 49.3535 19.8426 44.3467 14.7639ZM41.097 26.7037L28.7237 39.2361C25.9123 42.088 23.0962 42.0787 20.271 39.213L7.89318 26.6574C5.09995 23.8056 5.09995 20.963 7.89318 18.125L17.5508 8.2778L21.2432 11.9954L12.9046 20.4445C11.6175 21.7639 11.6312 23.0741 12.9456 24.3797L22.5303 34.1019C23.831 35.4074 25.1181 35.4074 26.3915 34.1019L31.2614 29.213C31.3162 29.1435 31.3572 29.1019 31.3892 29.088L35.9624 24.426C37.2769 23.0926 37.2906 21.7685 36.0035 20.4491L30.2892 14.625L27.0578 17.9074L30.5905 21.4908C31.1518 22.0602 31.1382 22.6389 30.5494 23.2361L25.3235 28.5324C24.721 29.1158 24.1505 29.1297 23.6028 28.5741L18.3587 23.2547C17.7836 22.6713 17.7836 22.0834 18.3587 21.4861L24.4837 15.2963L27.7333 12.0185L31.3937 8.30558L41.0559 18.1297C43.8948 20.9954 43.9085 23.8519 41.097 26.7037Z" fill="#0C27BE"/>
</g>
<defs>
<clipPath id="clip0_3949_10352">
<rect width="164.308" height="48" fill="white" transform="translate(0.846191)"/>
</clipPath>
</defs>
</svg>
